<?xml version="1.0" encoding="UTF-8" standalone="no"?>
<!DOCTYPE svg PUBLIC "-//W3C//DTD SVG 1.1//EN"
 "http://www.w3.org/Graphics/SVG/1.1/DTD/svg11.dtd">
<!-- Generated by graphviz version 2.43.0 (0)
 -->
<!-- Title: sourcetree Pages: 1 -->
<svg width="565pt" height="260pt"
 viewBox="0.00 0.00 565.00 260.00" xmlns="http://www.w3.org/2000/svg" xmlns:xlink="http://www.w3.org/1999/xlink">
<g id="graph0" class="graph" transform="scale(1 1) rotate(0) translate(4 256)">
<title>sourcetree</title>
<polygon fill="white" stroke="transparent" points="-4,4 -4,-256 561,-256 561,4 -4,4"/>
<!-- MulleScionHTMLPreprocessor -->
<g id="node1" class="node">
<title>MulleScionHTMLPreprocessor</title>
<polygon fill="yellow" stroke="black" points="460.5,-252 225.5,-252 225.5,-216 460.5,-216 460.5,-252"/>
<text text-anchor="middle" x="343" y="-230.3" font-family="Times,serif" font-size="14.00">MulleScionHTMLPreprocessor</text>
</g>
<!-- MulleObjCValueFoundation -->
<g id="node7" class="node">
<title>MulleObjCValueFoundation</title>
<polygon fill="lightgrey" stroke="black" points="358,-180 146,-180 146,-144 358,-144 358,-180"/>
<text text-anchor="middle" x="252" y="-158.3" font-family="Times,serif" font-size="14.00">MulleObjCValueFoundation</text>
</g>
<!-- MulleScionHTMLPreprocessor&#45;&gt;MulleObjCValueFoundation -->
<g id="edge7" class="edge">
<title>MulleScionHTMLPreprocessor&#45;&gt;MulleObjCValueFoundation</title>
<path fill="none" stroke="black" d="M320.51,-215.7C309.04,-206.88 294.94,-196.03 282.52,-186.47"/>
<polygon fill="black" stroke="black" points="284.3,-183.43 274.24,-180.1 280.03,-188.98 284.3,-183.43"/>
</g>
<!-- mulle&#45;objc&#45;list -->
<g id="node8" class="node">
<title>mulle&#45;objc&#45;list</title>
<polygon fill="lightgrey" stroke="black" points="493.5,-180 376.5,-180 376.5,-144 493.5,-144 493.5,-180"/>
<text text-anchor="middle" x="435" y="-158.3" font-family="Times,serif" font-size="14.00">mulle&#45;objc&#45;list</text>
</g>
<!-- MulleScionHTMLPreprocessor&#45;&gt;mulle&#45;objc&#45;list -->
<g id="edge6" class="edge">
<title>MulleScionHTMLPreprocessor&#45;&gt;mulle&#45;objc&#45;list</title>
<path fill="none" stroke="black" d="M365.74,-215.7C377.44,-206.8 391.86,-195.82 404.51,-186.2"/>
<polygon fill="black" stroke="black" points="406.68,-188.94 412.52,-180.1 402.44,-183.37 406.68,-188.94"/>
</g>
<!-- MulleObjC -->
<g id="node2" class="node">
<title>MulleObjC</title>
<polygon fill="lightgrey" stroke="black" points="298,-108 206,-108 206,-72 298,-72 298,-108"/>
<text text-anchor="middle" x="252" y="-86.3" font-family="Times,serif" font-size="14.00">MulleObjC</text>
</g>
<!-- mulle&#45;container -->
<g id="node3" class="node">
<title>mulle&#45;container</title>
<polygon fill="lightgrey" stroke="black" points="128,-36 0,-36 0,0 128,0 128,-36"/>
<text text-anchor="middle" x="64" y="-14.3" font-family="Times,serif" font-size="14.00">mulle&#45;container</text>
</g>
<!-- MulleObjC&#45;&gt;mulle&#45;container -->
<g id="edge1" class="edge">
<title>MulleObjC&#45;&gt;mulle&#45;container</title>
<path fill="none" stroke="black" d="M206.01,-71.88C179.85,-62.14 146.91,-49.87 119.35,-39.61"/>
<polygon fill="black" stroke="black" points="120.43,-36.28 109.84,-36.07 117.99,-42.84 120.43,-36.28"/>
</g>
<!-- mulle&#45;fifo -->
<g id="node4" class="node">
<title>mulle&#45;fifo</title>
<polygon fill="lightgrey" stroke="black" points="229.5,-36 146.5,-36 146.5,0 229.5,0 229.5,-36"/>
<text text-anchor="middle" x="188" y="-14.3" font-family="Times,serif" font-size="14.00">mulle&#45;fifo</text>
</g>
<!-- MulleObjC&#45;&gt;mulle&#45;fifo -->
<g id="edge2" class="edge">
<title>MulleObjC&#45;&gt;mulle&#45;fifo</title>
<path fill="none" stroke="black" d="M236.18,-71.7C228.43,-63.22 218.96,-52.86 210.48,-43.58"/>
<polygon fill="black" stroke="black" points="212.97,-41.12 203.64,-36.1 207.8,-45.85 212.97,-41.12"/>
</g>
<!-- mulle&#45;objc&#45;debug -->
<g id="node5" class="node">
<title>mulle&#45;objc&#45;debug</title>
<polygon fill="lightgrey" stroke="black" points="386.5,-36 247.5,-36 247.5,0 386.5,0 386.5,-36"/>
<text text-anchor="middle" x="317" y="-14.3" font-family="Times,serif" font-size="14.00">mulle&#45;objc&#45;debug</text>
</g>
<!-- MulleObjC&#45;&gt;mulle&#45;objc&#45;debug -->
<g id="edge3" class="edge">
<title>MulleObjC&#45;&gt;mulle&#45;objc&#45;debug</title>
<path fill="none" stroke="black" d="M268.07,-71.7C275.94,-63.22 285.56,-52.86 294.17,-43.58"/>
<polygon fill="black" stroke="black" points="296.88,-45.81 301.12,-36.1 291.75,-41.05 296.88,-45.81"/>
</g>
<!-- mulle&#45;objc&#45;runtime -->
<g id="node6" class="node">
<title>mulle&#45;objc&#45;runtime</title>
<polygon fill="lightgrey" stroke="black" points="557,-36 405,-36 405,0 557,0 557,-36"/>
<text text-anchor="middle" x="481" y="-14.3" font-family="Times,serif" font-size="14.00">mulle&#45;objc&#45;runtime</text>
</g>
<!-- MulleObjC&#45;&gt;mulle&#45;objc&#45;runtime -->
<g id="edge4" class="edge">
<title>MulleObjC&#45;&gt;mulle&#45;objc&#45;runtime</title>
<path fill="none" stroke="black" d="M298.07,-74.92C331.76,-64.62 377.93,-50.51 415.46,-39.03"/>
<polygon fill="black" stroke="black" points="416.76,-42.3 425.3,-36.03 414.71,-35.6 416.76,-42.3"/>
</g>
<!-- MulleObjCValueFoundation&#45;&gt;MulleObjC -->
<g id="edge5" class="edge">
<title>MulleObjCValueFoundation&#45;&gt;MulleObjC</title>
<path fill="none" stroke="black" d="M252,-143.7C252,-135.98 252,-126.71 252,-118.11"/>
<polygon fill="black" stroke="black" points="255.5,-118.1 252,-108.1 248.5,-118.1 255.5,-118.1"/>
</g>
</g>
</svg>
