<?xml version="1.0" encoding="UTF-8" standalone="no"?>
<!DOCTYPE svg PUBLIC "-//W3C//DTD SVG 1.1//EN"
 "http://www.w3.org/Graphics/SVG/1.1/DTD/svg11.dtd">
<!-- Generated by graphviz version 2.43.0 (0)
 -->
<!-- Title: sourcetree Pages: 1 -->
<svg width="2855pt" height="260pt"
 viewBox="0.00 0.00 2855.00 260.00" xmlns="http://www.w3.org/2000/svg" xmlns:xlink="http://www.w3.org/1999/xlink">
<g id="graph0" class="graph" transform="scale(1 1) rotate(0) translate(4 256)">
<title>sourcetree</title>
<polygon fill="white" stroke="transparent" points="-4,4 -4,-256 2851,-256 2851,4 -4,4"/>
<!-- MulleScionHTMLPreprocessor -->
<g id="node1" class="node">
<title>MulleScionHTMLPreprocessor</title>
<polygon fill="yellow" stroke="black" points="1555.5,-252 1320.5,-252 1320.5,-216 1555.5,-216 1555.5,-252"/>
<text text-anchor="middle" x="1438" y="-230.3" font-family="Times,serif" font-size="14.00">MulleScionHTMLPreprocessor</text>
</g>
<!-- MulleFoundationBase -->
<g id="node2" class="node">
<title>MulleFoundationBase</title>
<g id="a_node2"><a xlink:href="https://github.com/MulleFoundation/MulleFoundationBase" xlink:title="MulleFoundationBase">
<polygon fill="lightgrey" stroke="black" points="1524,-180 1352,-180 1352,-144 1524,-144 1524,-180"/>
<text text-anchor="middle" x="1438" y="-158.3" font-family="Times,serif" font-size="14.00">MulleFoundationBase</text>
</a>
</g>
</g>
<!-- MulleScionHTMLPreprocessor&#45;&gt;MulleFoundationBase -->
<g id="edge16" class="edge">
<title>MulleScionHTMLPreprocessor&#45;&gt;MulleFoundationBase</title>
<path fill="none" stroke="black" d="M1438,-215.7C1438,-207.98 1438,-198.71 1438,-190.11"/>
<polygon fill="black" stroke="black" points="1441.5,-190.1 1438,-180.1 1434.5,-190.1 1441.5,-190.1"/>
</g>
<!-- MulleObjC -->
<g id="node3" class="node">
<title>MulleObjC</title>
<g id="a_node3"><a xlink:href="https://github.com/mulle-objc/MulleObjC" xlink:title="MulleObjC">
<polygon fill="lightgrey" stroke="black" points="244,-108 152,-108 152,-72 244,-72 244,-108"/>
<text text-anchor="middle" x="198" y="-86.3" font-family="Times,serif" font-size="14.00">MulleObjC</text>
</a>
</g>
</g>
<!-- MulleFoundationBase&#45;&gt;MulleObjC -->
<g id="edge1" class="edge">
<title>MulleFoundationBase&#45;&gt;MulleObjC</title>
<path fill="none" stroke="black" d="M1351.83,-159.93C1119.73,-156.62 484.16,-144.55 254.22,-107.67"/>
<polygon fill="black" stroke="black" points="254.67,-104.2 244.23,-106.01 253.52,-111.1 254.67,-104.2"/>
</g>
<!-- MulleObjCArchiverFoundation -->
<g id="node4" class="node">
<title>MulleObjCArchiverFoundation</title>
<g id="a_node4"><a xlink:href="https://github.com/MulleFoundation/MulleObjCArchiverFoundation@*" xlink:title="MulleObjCArchiverFoundation">
<polygon fill="lightgrey" stroke="black" points="495.5,-108 262.5,-108 262.5,-72 495.5,-72 495.5,-108"/>
<text text-anchor="middle" x="379" y="-86.3" font-family="Times,serif" font-size="14.00">MulleObjCArchiverFoundation</text>
</a>
</g>
</g>
<!-- MulleFoundationBase&#45;&gt;MulleObjCArchiverFoundation -->
<g id="edge2" class="edge">
<title>MulleFoundationBase&#45;&gt;MulleObjCArchiverFoundation</title>
<path fill="none" stroke="black" d="M1351.97,-158.34C1189.03,-152.81 824.04,-138.1 506.01,-108.05"/>
<polygon fill="black" stroke="black" points="505.95,-104.53 495.66,-107.06 505.29,-111.5 505.95,-104.53"/>
</g>
<!-- MulleObjCContainerFoundation -->
<g id="node5" class="node">
<title>MulleObjCContainerFoundation</title>
<g id="a_node5"><a xlink:href="https://github.com/MulleFoundation/MulleObjCContainerFoundation@*" xlink:title="MulleObjCContainerFoundation">
<polygon fill="lightgrey" stroke="black" points="756.5,-108 513.5,-108 513.5,-72 756.5,-72 756.5,-108"/>
<text text-anchor="middle" x="635" y="-86.3" font-family="Times,serif" font-size="14.00">MulleObjCContainerFoundation</text>
</a>
</g>
</g>
<!-- MulleFoundationBase&#45;&gt;MulleObjCContainerFoundation -->
<g id="edge3" class="edge">
<title>MulleFoundationBase&#45;&gt;MulleObjCContainerFoundation</title>
<path fill="none" stroke="black" d="M1351.95,-155.6C1225.94,-147.39 983.58,-130.43 766.64,-108.04"/>
<polygon fill="black" stroke="black" points="766.96,-104.55 756.66,-107 766.24,-111.51 766.96,-104.55"/>
</g>
<!-- MulleObjCKVCFoundation -->
<g id="node6" class="node">
<title>MulleObjCKVCFoundation</title>
<g id="a_node6"><a xlink:href="https://github.com/MulleFoundation/MulleObjCKVCFoundation@*" xlink:title="MulleObjCKVCFoundation">
<polygon fill="lightgrey" stroke="black" points="977.5,-108 774.5,-108 774.5,-72 977.5,-72 977.5,-108"/>
<text text-anchor="middle" x="876" y="-86.3" font-family="Times,serif" font-size="14.00">MulleObjCKVCFoundation</text>
</a>
</g>
</g>
<!-- MulleFoundationBase&#45;&gt;MulleObjCKVCFoundation -->
<g id="edge4" class="edge">
<title>MulleFoundationBase&#45;&gt;MulleObjCKVCFoundation</title>
<path fill="none" stroke="black" d="M1351.85,-151.78C1263.22,-142.09 1120.91,-125.96 987.59,-108.05"/>
<polygon fill="black" stroke="black" points="987.98,-104.57 977.6,-106.71 987.05,-111.51 987.98,-104.57"/>
</g>
<!-- MulleObjCLockFoundation -->
<g id="node7" class="node">
<title>MulleObjCLockFoundation</title>
<g id="a_node7"><a xlink:href="https://github.com/MulleFoundation/MulleObjCLockFoundation@*" xlink:title="MulleObjCLockFoundation">
<polygon fill="lightgrey" stroke="black" points="1202,-108 996,-108 996,-72 1202,-72 1202,-108"/>
<text text-anchor="middle" x="1099" y="-86.3" font-family="Times,serif" font-size="14.00">MulleObjCLockFoundation</text>
</a>
</g>
</g>
<!-- MulleFoundationBase&#45;&gt;MulleObjCLockFoundation -->
<g id="edge5" class="edge">
<title>MulleFoundationBase&#45;&gt;MulleObjCLockFoundation</title>
<path fill="none" stroke="black" d="M1355.5,-143.97C1305.99,-133.74 1242.88,-120.71 1191.65,-110.13"/>
<polygon fill="black" stroke="black" points="1192.07,-106.64 1181.57,-108.05 1190.66,-113.5 1192.07,-106.64"/>
</g>
<!-- MulleObjCMathFoundation -->
<g id="node8" class="node">
<title>MulleObjCMathFoundation</title>
<g id="a_node8"><a xlink:href="https://github.com/MulleFoundation/MulleObjCMathFoundation@*" xlink:title="MulleObjCMathFoundation">
<polygon fill="lightgrey" stroke="black" points="1430,-108 1220,-108 1220,-72 1430,-72 1430,-108"/>
<text text-anchor="middle" x="1325" y="-86.3" font-family="Times,serif" font-size="14.00">MulleObjCMathFoundation</text>
</a>
</g>
</g>
<!-- MulleFoundationBase&#45;&gt;MulleObjCMathFoundation -->
<g id="edge6" class="edge">
<title>MulleFoundationBase&#45;&gt;MulleObjCMathFoundation</title>
<path fill="none" stroke="black" d="M1410.36,-143.88C1395.58,-134.72 1377.21,-123.34 1361.3,-113.48"/>
<polygon fill="black" stroke="black" points="1363.09,-110.48 1352.75,-108.19 1359.41,-116.43 1363.09,-110.48"/>
</g>
<!-- MulleObjCPlistFoundation -->
<g id="node9" class="node">
<title>MulleObjCPlistFoundation</title>
<g id="a_node9"><a xlink:href="https://github.com/MulleFoundation/MulleObjCPlistFoundation@*" xlink:title="MulleObjCPlistFoundation">
<polygon fill="lightgrey" stroke="black" points="1653.5,-108 1448.5,-108 1448.5,-72 1653.5,-72 1653.5,-108"/>
<text text-anchor="middle" x="1551" y="-86.3" font-family="Times,serif" font-size="14.00">MulleObjCPlistFoundation</text>
</a>
</g>
</g>
<!-- MulleFoundationBase&#45;&gt;MulleObjCPlistFoundation -->
<g id="edge7" class="edge">
<title>MulleFoundationBase&#45;&gt;MulleObjCPlistFoundation</title>
<path fill="none" stroke="black" d="M1465.64,-143.88C1480.42,-134.72 1498.79,-123.34 1514.7,-113.48"/>
<polygon fill="black" stroke="black" points="1516.59,-116.43 1523.25,-108.19 1512.91,-110.48 1516.59,-116.43"/>
</g>
<!-- MulleObjCStandardFoundation -->
<g id="node10" class="node">
<title>MulleObjCStandardFoundation</title>
<g id="a_node10"><a xlink:href="https://github.com/MulleFoundation/MulleObjCStandardFoundation@*" xlink:title="MulleObjCStandardFoundation">
<polygon fill="lightgrey" stroke="black" points="1910.5,-108 1671.5,-108 1671.5,-72 1910.5,-72 1910.5,-108"/>
<text text-anchor="middle" x="1791" y="-86.3" font-family="Times,serif" font-size="14.00">MulleObjCStandardFoundation</text>
</a>
</g>
</g>
<!-- MulleFoundationBase&#45;&gt;MulleObjCStandardFoundation -->
<g id="edge8" class="edge">
<title>MulleFoundationBase&#45;&gt;MulleObjCStandardFoundation</title>
<path fill="none" stroke="black" d="M1523.9,-143.97C1575.68,-133.7 1641.73,-120.6 1695.19,-110"/>
<polygon fill="black" stroke="black" points="1695.89,-113.43 1705.02,-108.05 1694.53,-106.56 1695.89,-113.43"/>
</g>
<!-- MulleObjCTimeFoundation -->
<g id="node11" class="node">
<title>MulleObjCTimeFoundation</title>
<g id="a_node11"><a xlink:href="https://github.com/MulleFoundation/MulleObjCTimeFoundation@*" xlink:title="MulleObjCTimeFoundation">
<polygon fill="lightgrey" stroke="black" points="2137,-108 1929,-108 1929,-72 2137,-72 2137,-108"/>
<text text-anchor="middle" x="2033" y="-86.3" font-family="Times,serif" font-size="14.00">MulleObjCTimeFoundation</text>
</a>
</g>
</g>
<!-- MulleFoundationBase&#45;&gt;MulleObjCTimeFoundation -->
<g id="edge9" class="edge">
<title>MulleFoundationBase&#45;&gt;MulleObjCTimeFoundation</title>
<path fill="none" stroke="black" d="M1524.32,-152.55C1618.7,-143.08 1774.64,-126.74 1919.03,-108.1"/>
<polygon fill="black" stroke="black" points="1919.5,-111.57 1928.96,-106.81 1918.6,-104.63 1919.5,-111.57"/>
</g>
<!-- MulleObjCUnicodeFoundation -->
<g id="node12" class="node">
<title>MulleObjCUnicodeFoundation</title>
<g id="a_node12"><a xlink:href="https://github.com/MulleFoundation/MulleObjCUnicodeFoundation@*" xlink:title="MulleObjCUnicodeFoundation">
<polygon fill="lightgrey" stroke="black" points="2386.5,-108 2155.5,-108 2155.5,-72 2386.5,-72 2386.5,-108"/>
<text text-anchor="middle" x="2271" y="-86.3" font-family="Times,serif" font-size="14.00">MulleObjCUnicodeFoundation</text>
</a>
</g>
</g>
<!-- MulleFoundationBase&#45;&gt;MulleObjCUnicodeFoundation -->
<g id="edge10" class="edge">
<title>MulleFoundationBase&#45;&gt;MulleObjCUnicodeFoundation</title>
<path fill="none" stroke="black" d="M1524.25,-156.23C1655.77,-148.58 1914.56,-132.06 2145,-108.07"/>
<polygon fill="black" stroke="black" points="2145.67,-111.52 2155.26,-106.99 2144.94,-104.55 2145.67,-111.52"/>
</g>
<!-- MulleObjCUUIDFoundation -->
<g id="node13" class="node">
<title>MulleObjCUUIDFoundation</title>
<g id="a_node13"><a xlink:href="https://github.com/MulleFoundation/MulleObjCUUIDFoundation@*" xlink:title="MulleObjCUUIDFoundation">
<polygon fill="lightgrey" stroke="black" points="2617.5,-108 2404.5,-108 2404.5,-72 2617.5,-72 2617.5,-108"/>
<text text-anchor="middle" x="2511" y="-86.3" font-family="Times,serif" font-size="14.00">MulleObjCUUIDFoundation</text>
</a>
</g>
</g>
<!-- MulleFoundationBase&#45;&gt;MulleObjCUUIDFoundation -->
<g id="edge11" class="edge">
<title>MulleFoundationBase&#45;&gt;MulleObjCUUIDFoundation</title>
<path fill="none" stroke="black" d="M1524.08,-158.88C1690.37,-154.2 2067.49,-140.78 2394.09,-108.14"/>
<polygon fill="black" stroke="black" points="2394.62,-111.61 2404.22,-107.12 2393.92,-104.64 2394.62,-111.61"/>
</g>
<!-- MulleObjCValueFoundation -->
<g id="node14" class="node">
<title>MulleObjCValueFoundation</title>
<g id="a_node14"><a xlink:href="https://github.com/MulleFoundation/MulleObjCValueFoundation@*" xlink:title="MulleObjCValueFoundation">
<polygon fill="lightgrey" stroke="black" points="2847,-108 2635,-108 2635,-72 2847,-72 2847,-108"/>
<text text-anchor="middle" x="2741" y="-86.3" font-family="Times,serif" font-size="14.00">MulleObjCValueFoundation</text>
</a>
</g>
</g>
<!-- MulleFoundationBase&#45;&gt;MulleObjCValueFoundation -->
<g id="edge12" class="edge">
<title>MulleFoundationBase&#45;&gt;MulleObjCValueFoundation</title>
<path fill="none" stroke="black" d="M1524.01,-160.21C1718.51,-157.78 2207.19,-147.94 2624.69,-108.17"/>
<polygon fill="black" stroke="black" points="2625.23,-111.64 2634.85,-107.2 2624.56,-104.67 2625.23,-111.64"/>
</g>
<!-- mulle&#45;objc&#45;cc -->
<g id="node15" class="node">
<title>mulle&#45;objc&#45;cc</title>
<g id="a_node15"><a xlink:href="https://github.com/mulle-cc/mulle-objc-cc" xlink:title="mulle&#45;objc&#45;cc">
<polygon fill="lightgrey" stroke="black" points="110,-36 0,-36 0,0 110,0 110,-36"/>
<text text-anchor="middle" x="55" y="-14.3" font-family="Times,serif" font-size="14.00">mulle&#45;objc&#45;cc</text>
</a>
</g>
</g>
<!-- MulleObjC&#45;&gt;mulle&#45;objc&#45;cc -->
<g id="edge13" class="edge">
<title>MulleObjC&#45;&gt;mulle&#45;objc&#45;cc</title>
<path fill="none" stroke="black" d="M163.02,-71.88C143.8,-62.47 119.77,-50.71 99.26,-40.67"/>
<polygon fill="black" stroke="black" points="100.64,-37.44 90.12,-36.19 97.56,-43.73 100.64,-37.44"/>
</g>
<!-- mulle&#45;objc&#45;debug -->
<g id="node16" class="node">
<title>mulle&#45;objc&#45;debug</title>
<g id="a_node16"><a xlink:href="https://github.com/mulle-objc/mulle-objc-debug" xlink:title="mulle&#45;objc&#45;debug">
<polygon fill="lightgrey" stroke="black" points="267.5,-36 128.5,-36 128.5,0 267.5,0 267.5,-36"/>
<text text-anchor="middle" x="198" y="-14.3" font-family="Times,serif" font-size="14.00">mulle&#45;objc&#45;debug</text>
</a>
</g>
</g>
<!-- MulleObjC&#45;&gt;mulle&#45;objc&#45;debug -->
<g id="edge14" class="edge">
<title>MulleObjC&#45;&gt;mulle&#45;objc&#45;debug</title>
<path fill="none" stroke="black" d="M198,-71.7C198,-63.98 198,-54.71 198,-46.11"/>
<polygon fill="black" stroke="black" points="201.5,-46.1 198,-36.1 194.5,-46.1 201.5,-46.1"/>
</g>
<!-- mulle&#45;objc&#45;runtime -->
<g id="node17" class="node">
<title>mulle&#45;objc&#45;runtime</title>
<g id="a_node17"><a xlink:href="https://github.com/mulle-objc/mulle-objc-runtime" xlink:title="mulle&#45;objc&#45;runtime">
<polygon fill="lightgrey" stroke="black" points="438,-36 286,-36 286,0 438,0 438,-36"/>
<text text-anchor="middle" x="362" y="-14.3" font-family="Times,serif" font-size="14.00">mulle&#45;objc&#45;runtime</text>
</a>
</g>
</g>
<!-- MulleObjC&#45;&gt;mulle&#45;objc&#45;runtime -->
<g id="edge15" class="edge">
<title>MulleObjC&#45;&gt;mulle&#45;objc&#45;runtime</title>
<path fill="none" stroke="black" d="M238.12,-71.88C260.64,-62.26 288.92,-50.19 312.77,-40.01"/>
<polygon fill="black" stroke="black" points="314.19,-43.21 322.01,-36.07 311.44,-36.77 314.19,-43.21"/>
</g>
</g>
</svg>
